# xmcd
#
# Track frame offsets:
#	150
#	21905
#	53925
#
# Disc length: 725 seconds
#
# Revision: 0
# Processed by: cddbd v1.5.2PL0 Copyright (c) Steve Scherf et al.
# Submitted via: EasyCDDAExtractor 10.0.1.1
#
DISCID=2002d303
DTITLE=Richard Hawley - Coles Corner [CD Single)
DYEAR=2005
DGENRE=Easy Listening
TTITLE0=Coles Corner
TTITLE1=I'm Absolutely Hank Marvin (featuring Hank Marvin)
TTITLE2=Mute Records logo (JPG)
EXTD=
EXTT0=
EXTT1=
EXTT2=
PLAYORDER=
